# xmcd CD database file
# Copyright (C) 1997 Ti Kan
# 
# Track frame offsets:
#     150
#     1900
#     17805
#     18777
#     36322
#     37315
#     52405
#     53480
#     62760
#     63792
#     77917
#     78697
#     94147
#     94887
#     112985
#     114057
#     128862
#     130097
#     137900
#     138950
#     150755
#     151740
#     163565
#     164290
#     179552
#     180552
#     197957
#     198990
#     211380
#     212155
# 
# Disc length: 3015 seconds
# 
# Revision: 1
# Processed by: cddbd v1.4b41PL1 Copyright (c) Steve Scherf et al.
# Submitted via: DiscPlay 4.0.4
# 
DISCID=990bc51e
DTITLE=Various Artist - Bail o Sertanejo
DYEAR=1900
DGENRE=
TTITLE0=Locu  o-Festa de Rodeio
TTITLE1=Festa De Rodeio
TTITLE2=Locu  o-Estou Apaixonado
TTITLE3=Estou Apaixonado
TTITLE4=Locu  o-24 Horas De Amor
TTITLE5=24 Horas De Amor
TTITLE6=Locu  o-60 Dias Apaixonado
TTITLE7=60 Dias Apaixonado
TTITLE8=Locu  o-  O Amor
TTITLE9=O Amor
TTITLE10=Locu  o-Olhos Claros
TTITLE11=Olhos Claros
TTITLE12=Locu  o-Talism 
TTITLE13=Talism 
TTITLE14=Locu  o-New York
TTITLE15=New York
TTITLE16=Locu  o-Estrada Da Vida
TTITLE17=Estrada Da Vida
TTITLE18=Locu  o-Fio De Cabelo
TTITLE19=Fio De Cabelo
TTITLE20=Locu  o-Crise De Amor
TTITLE21=Crises De Amor
TTITLE22=Locu  o-Sonho De Um Caminhoneiro
TTITLE23=Sonho De Um Caminhoneiro
TTITLE24=Locu  o-Bobaca E Bob o
TTITLE25=Boboca E Bob o
TTITLE26=Locu  o-Capa De Revista
TTITLE27=Capa De Revista
TTITLE28=Locu  o-Amante Anonimo
TTITLE29=Amante Anonimo
EXTD=
EXTT0=
EXTT1=
EXTT2=
EXTT3=
EXTT4=
EXTT5=
EXTT6=
EXTT7=
EXTT8=
EXTT9=
EXTT10=
EXTT11=
EXTT12=
EXTT13=
EXTT14=
EXTT15=
EXTT16=
EXTT17=
EXTT18=
EXTT19=
EXTT20=
EXTT21=
EXTT22=
EXTT23=
EXTT24=
EXTT25=
EXTT26=
EXTT27=
EXTT28=
EXTT29=
PLAYORDER=
